PathFileType	3	(X/Y/Z)	D:\VICON_DB\Goncalves\Pilot01\09-03-2026\walking_01.trc
DataRate	CameraRate	NumFrames	NumMarkers	Units	OrigDataRate	OrigDataStartFrame	OrigNumFrames
200.0	200.0	7	34	mm	200.0	679	1809	
Frame#	Time	LASI			RASI			LPSI			RPSI			LTHI			LTHAP			LTHAD			LKNE			LKNM			LTIB			LTIAP			LTIAD			LANK			LMED			LHEE			LTOE			LFMH			LSMH			LVMH			RTHI			RTHAP			RTHAD			RKNE			RKNM			RTIB			RTIAP			RTIAD			RANK			RMED			RHEE			RTOE			RFMH			RSMH			RVMH			
		X1	Y1	Z1	X2	Y2	Z2	X3	Y3	Z3	X4	Y4	Z4	X5	Y5	Z5	X6	Y6	Z6	X7	Y7	Z7	X8	Y8	Z8	X9	Y9	Z9	X10	Y10	Z10	X11	Y11	Z11	X12	Y12	Z12	X13	Y13	Z13	X14	Y14	Z14	X15	Y15	Z15	X16	Y16	Z16	X17	Y17	Z17	X18	Y18	Z18	X19	Y19	Z19	X20	Y20	Z20	X21	Y21	Z21	X22	Y22	Z22	X23	Y23	Z23	X24	Y24	Z24	X25	Y25	Z25	X26	Y26	Z26	X27	Y27	Z27	X28	Y28	Z28	X29	Y29	Z29	X30	Y30	Z30	X31	Y31	Z31	X32	Y32	Z32	X33	Y33	Z33	X34	Y34	Z34	
679	3.39	70.937134	850.82672	971.58112	331.89005	862.45068	953.18665				247.41205	904.78864	1156.7756	59.348003	637.88312	1009.5997	43.762474	711.41998	1015.686	49.353085	579.15247	1064.7866	73.378281	431.58087	1137.2764				71.04882	271.6459	1265.9734	123.14053	313.88712	1175.8348	103.23977	230.5208	1246.692	106.06787	109.15042	1396.8364				152.99841	133.27698	1444.7413	139.09666	84.902962	1330.7328	175.52982	42.686314	1297.3071				94.964493	23.792204	1311.5529	370.90906	616.88965	891.88153	352.26154	741.04639	913.52264	318.60477	668.61194	869.32227	344.47894	478.63449	879.08087				350.97934	288.74673	830.66852	296.62488	350.97394	812.75281	293.88889	271.57181	792.02014	315.13846	55.737099	805.84961				275.61041	46.789047	844.77905	288.37	78.669731	719.86841	257.01352	70.172409	670.95148				327.31473	37.52972	675.45007
680	3.395	72.151825	850.55078	963.83252	333.07761	863.12152	946.09119				248.18251	904.68085	1149.5903	60.350838	637.38495	1001.5507	44.965244	710.90271	1007.7082	50.117649	578.58124	1056.6318	73.751236	430.86105	1128.8472				71.01786	273.00961	1259.926	123.06827	313.57611	1168.9575	103.00132	231.44406	1241.2421	105.80901	112.74416	1393.4451				152.92667	138.00269	1440.6112	138.72446	85.990791	1328.137	175.51855	42.782959	1296.7493				95.081902	23.91877	1311.3022	372.03931	617.14655	885.14185	353.53671	741.54114	906.26019	320.02863	668.94403	862.10687	345.16235	478.98349	872.72705				351.31369	288.4787	825.97504	297.11935	350.62753	807.25159	294.22403	270.99927	787.44714	315.2085	55.379635	804.36896				275.71616	47.386444	843.54883	288.36649	76.512161	717.83502	257.04889	67.03006	668.98291				327.48721	34.122669	674.13245
681	3.4	73.414421	850.34363	956.09668	334.2872	863.91418	939.026				248.95364	904.64966	1142.4213	61.384335	636.96027	993.37067	46.196381	710.45538	999.65283	50.89537	578.05066	1048.3053	74.112389	430.13504	1120.1279				71.006645	274.45242	1253.5752	122.9827	313.29669	1161.7795	102.75421	232.43974	1235.4814	105.60764	116.49199	1389.7308				152.94778	142.88731	1436.0586	138.36581	87.087128	1325.3289	175.50923	42.902405	1296.0999				95.197105	24.123573	1310.9795	373.23822	617.48755	878.47015	354.86508	742.13721	899.07269	321.53033	669.35651	854.95551	345.91171	479.40109	866.44196				351.67676	288.29773	821.3407	297.61844	350.33524	801.87079	294.55795	270.48822	783.02966	315.29712	55.110394	803.01312				275.85135	47.992706	842.43646	288.33417	74.544868	715.98767	257.01895	64.126976	667.23187				327.63351	30.991207	672.90198
682	3.405	74.722748	850.2049	948.38739	335.51587	864.82416	931.99506				249.72289	904.69647	1135.2744	62.445953	636.61273	985.06897	47.449928	710.08099	991.5343	51.683662	577.56116	1039.8114	74.460808	429.40128	1111.1143				71.020752	275.96484	1246.9067	122.88381	313.0416	1154.2867	102.50437	233.50325	1229.3954	105.47366	120.38336	1385.6698				153.07036	147.9176	1431.0583	138.02745	88.195229	1322.2969	175.50403	43.059547	1295.3392				95.31144	24.427158	1310.5691	374.49023	617.91034	871.86365	356.24448	742.83356	891.96411	323.09705	669.85034	847.8703	346.7153	479.87646	860.23218				352.06415	288.18494	816.78497	298.12204	350.08246	796.62274	294.89166	270.0249	778.77808	315.39606	54.916817	801.7851				276.00256	48.589272	841.43817	288.28412	72.77536	714.3269	256.95093	61.478241	665.68744				327.77884	28.155506	671.76312
683	3.41	76.072144	850.13312	940.71814	336.75989	865.84302	925.00214				250.48753	904.82056	1128.1558	63.531147	636.34576	976.65656	48.718391	709.78198	983.36823	52.478695	577.11255	1031.1555	74.796043	428.65924	1101.8042				71.064758	277.53763	1239.9088	122.76979	312.80206	1146.4651	102.25867	234.6304	1222.9714	105.41585	124.40737	1381.2402				153.30199	153.07864	1425.5874	137.7188	89.324593	1319.0264	175.50578	43.272308	1294.4436				95.427383	24.852692	1310.0522	375.77728	618.40717	865.3222	357.67142	743.62347	884.93719	324.71375	670.42078	840.8537	347.56146	480.39526	854.10828				352.47247	288.12119	812.32941	298.63144	349.85495	791.51935	295.22775	269.59598	774.70099	315.49808	54.786438	800.68671				276.15799	49.16098	840.55072	288.22769	71.205666	712.85022	256.86984	59.092422	664.33667				327.94263	25.62495	670.72058
684	3.415	77.455627	850.12628	933.10242	338.01474	866.95837	918.05103				251.2449	905.01996	1121.0703	64.633484	636.16278	968.14532	49.992836	709.56104	975.1709	53.275574	576.70526	1022.345	75.118324	427.90991	1092.1986				71.142235	279.16196	1232.5714	122.63959	312.57071	1138.3019	102.02468	235.8177	1216.1993	105.44164	128.55331	1376.4229				153.64864	158.35405	1419.6263	137.45111	90.490387	1315.5006	175.51761	43.561466	1293.3857				95.548454	25.425575	1309.4067	377.0802	618.96613	858.84949	359.14017	744.49506	877.99396	326.36395	671.05701	833.909	348.43918	480.94153	848.08411				352.89978	288.08865	807.99615	299.14899	349.63956	786.57086	295.57089	269.18973	770.80499	315.59827	54.707893	799.71838				276.30893	49.696293	839.77112	288.17432	69.832764	711.552	256.79425	56.972095	663.16565				328.13535	23.399576	669.77838
685	3.42	78.864296	850.18152	925.55341	339.27515	868.15497	911.14478				251.9924	905.29144	1114.0232	65.744911	636.06702	959.54834	51.263062	709.42053	966.95941	54.068676	576.34021	1013.3884	75.428551	427.1561	1082.3015				71.255943	280.82993	1224.887	122.49445	312.34323	1129.7893	101.81046	237.06235	1209.072	105.5569	132.8112	1371.2018				154.11469	163.72574	1413.1598	137.23541	91.711266	1311.7023	175.54222	43.94994	1292.1332				95.679008	26.172813	1308.6049	378.38028	619.57123	852.45184	360.6427	745.43152	871.13531	328.03101	671.74341	827.04034	349.33853	481.49924	842.17535				353.34506	288.07184	803.80664	299.67792	349.42505	781.7865	295.92642	268.79608	767.09418	315.694	54.671051	798.87769				276.45035	50.187298	839.09662	288.13013	68.6492	710.4248	256.73328	55.114075	662.16077				328.35779	21.472315	668.93896
